#!OML:ASF G:\ViconDB\ViconDB\414\test\team2\shane.ASF
:FULLY-SPECIFIED
:DEGREES
299
root 4.56516 16.9232 13.0375 -10.1847 3.74732 -6.03435
lowerback 7.27702 3.23386 4.84576
upperback 3.50385 4.62107 -0.0998376
thorax -0.050157 2.37909 -3.12811
lowerneck -14.7356 -7.77964 -10.1863
upperneck 18.9674 -11.7093 14.7044
head 9.97811 -4.72215 5.24203
rclavicle 2.82771e-014 -1.59028e-014
rhumerus -21.4817 16.0144 -94.9425
rradius 36.7574
rwrist 30.1121
rhand -31.0135 -15.0532
rfingers 7.12502
rthumb -4.29621 -44.9896
lclavicle 2.82771e-014 -1.59028e-014
lhumerus -43.5104 -22.3108 96.7113
lradius 24.1309
lwrist -7.46697
lhand -36.2841 8.67448
lfingers 7.12502
lthumb -9.38393 38.4456
rfemur 16.8732 -15.5797 23.356
rtibia 18.6968
rfoot -18.1622 -1.65982
rtoes -10.5347
lfemur -17.8835 5.4395 -5.96294
ltibia 47.6309
lfoot -26.594 -9.88673
ltoes -10.578
300
root 4.58071 16.9524 13.1849 -9.91602 3.14448 -5.69978
lowerback 8.15563 4.71339 8.64664
upperback 2.96123 6.91813 -2.17002
thorax -0.14912 3.58419 -7.60626
lowerneck -13.2776 -9.38374 -10.9874
upperneck 18.226 -14.3961 17.0397
head 10.1107 -5.88519 5.80806
rclavicle 1.23743e-014 4.45278e-014
rhumerus -21.0856 11.5518 -94.9409
rradius 36.6346
rwrist 30.3487
rhand -30.917 -14.8103
rfingers 7.12502
rthumb -4.20294 -44.7486
lclavicle 1.23743e-014 4.45278e-014
lhumerus -45.4595 -28.4082 97.394
lradius 25.1781
lwrist -5.65095
lhand -35.7283 8.69109
lfingers 7.12502
lthumb -8.84763 38.4856
rfemur 18.2699 -15.282 22.8054
rtibia 16.3102
rfoot -17.2496 -0.91986
rtoes -10.4431
lfemur -18.5205 5.37743 -6.32771
ltibia 45.6129
lfoot -26.7432 -10.5521
ltoes -9.97654
301
root 4.5925 16.9605 13.3396 -9.89027 3.35057 -5.66406
lowerback 7.23217 3.80291 5.28024
upperback 3.13806 5.40602 -0.797441
thorax -0.221936 2.77174 -4.14298
lowerneck -14.1468 -8.2325 -10.774
upperneck 19.3694 -12.4927 15.4047
head 10.2179 -5.07307 5.49698
rclavicle -1.97294e-014 -1.35174e-014
rhumerus -20.8672 18.7672 -94.9721
rradius 36.6497
rwrist 28.7719
rhand -30.3045 -14.6303
rfingers 7.12502
rthumb -3.61152 -44.5794
lclavicle -1.97294e-014 -1.35174e-014
lhumerus -45.0813 -22.1396 95.9498
lradius 24.9727
lwrist -6.97382
lhand -35.8477 8.1174
lfingers 7.12502
lthumb -8.96288 37.907
rfemur 20.1096 -15.4154 22.5398
rtibia 13.6477
rfoot -16.4394 -0.713466
rtoes -10.7377
lfemur -19.217 5.0388 -6.53939
ltibia 43.7565
lfoot -27.0551 -11.3666
ltoes -9.69473
302
root 4.60073 16.9516 13.4831 -9.72352 3.06171 -5.33527
lowerback 7.34062 4.08066 5.11396
upperback 2.92111 5.77076 -1.11707
thorax -0.449837 2.94387 -4.42037
lowerneck -13.8877 -8.37952 -10.7708
upperneck 19.5908 -12.7485 15.3682
head 10.2828 -5.20029 5.45383
rclavicle 2.87492e-014 -7.95139e-016
rhumerus -20.704 20.7373 -95.0133
rradius 36.8747
rwrist 27.4704
rhand -30.1948 -14.4878
rfingers 7.12502
rthumb -3.5056 -44.4387
lclavicle 2.87492e-014 -7.95139e-016
lhumerus -45.6218 -21.516 95.2543
lradius 25.1909
lwrist -7.50861
lhand -36.0223 8.34021
lfingers 7.12502
lthumb -9.1313 38.1225
rfemur 21.9582 -15.1703 22.0483
rtibia 10.5749
rfoot -15.4156 -0.311408
rtoes -10.5477
lfemur -19.8642 5.1561 -6.93962
ltibia 42.041
lfoot -27.4004 -12.0943
ltoes -9.71494
303
root 4.61304 16.9382 13.6347 -9.57542 2.86243 -5.23734
lowerback 7.19242 4.29166 5.07293
upperback 2.83057 6.04158 -1.26081
thorax -0.419573 3.07939 -4.5515
lowerneck -13.7775 -8.45365 -10.9008
upperneck 19.734 -12.8674 15.4224
head 10.3446 -5.26051 5.48326
rclavicle 3.92103e-014 -2.62396e-014
rhumerus -20.264 22.5695 -94.7631
rradius 36.7467
rwrist 27.6377
rhand -29.989 -14.2267
rfingers 7.12502
rthumb -3.30681 -44.1808
lclavicle 3.92103e-014 -2.62396e-014
lhumerus -46.2316 -21.0862 94.9087
lradius 25.6291
lwrist -7.25446
lhand -36.2446 8.2742
lfingers 7.12502
lthumb -9.34584 38.047
rfemur 24.3372 -14.7904 21.8734
rtibia 6.36889
rfoot -13.8849 -0.168713
rtoes -11.0359
lfemur -20.5656 5.33494 -7.11779
ltibia 40.5018
lfoot -27.6224 -12.8872
ltoes -9.98559
304
root 4.62736 16.9163 13.7861 -9.41999 2.69004 -5.23617
lowerback 7.01984 4.56478 5.34677
upperback 2.73911 6.41488 -1.45712
thorax -0.321474 3.272 -4.91145
lowerneck -13.691 -8.62737 -11.0203
upperneck 19.8737 -13.1268 15.4642
head 10.4307 -5.38442 5.48174
rclavicle 8.61235e-014 -2.22639e-014
rhumerus -19.9002 24.195 -94.352
rradius 37.0167
rwrist 27.6796
rhand -29.4409 -13.8828
rfingers 7.12502
rthumb -2.77749 -43.8445
lclavicle 8.61235e-014 -2.22639e-014
lhumerus -46.9206 -21.0318 94.6829
lradius 26.1603
lwrist -6.94677
lhand -36.3169 8.28124
lfingers 7.12502
lthumb -9.41559 38.0509
rfemur 27.6617 -14.4625 21.8412
rtibia -3.18055e-015
rfoot -11.178 0.0986911
rtoes -11.7434
lfemur -21.3158 5.52545 -7.17094
ltibia 39.0876
lfoot -27.949 -13.7304
ltoes -10.2043
305
root 4.64127 16.893 13.9376 -9.22937 2.51232 -5.16112
lowerback 6.91052 4.88877 5.64612
upperback 2.67562 6.86035 -1.62859
thorax -0.213558 3.50219 -5.26434
lowerneck -13.6284 -8.82917 -11.1242
upperneck 19.9009 -13.3467 15.2534
head 10.4521 -5.51583 5.38587
rclavicle 1.15146e-013 -3.02153e-014
rhumerus -19.4972 25.9526 -93.714
rradius 37.3885
rwrist 26.7457
rhand -29.3102 -13.7003
rfingers 7.12502
rthumb -2.65131 -43.6636
lclavicle 1.15146e-013 -3.02153e-014
lhumerus -47.2693 -20.7078 94.2419
lradius 26.4569
lwrist -7.42353
lhand -36.249 7.87657
lfingers 7.12502
lthumb -9.3501 37.6492
rfemur 28.0714 -14.1021 21.7023
rtibia -5.40694e-014
rfoot -11.9708 0.0183999
rtoes -11.5783
lfemur -22.0492 5.66852 -7.28426
ltibia 37.8568
lfoot -28.3112 -14.5537
ltoes -9.96376
